{
    "asset": {
        "generator": "FBX2glTF",
        "version": "2.0"
    },
    "scene": 0,
    "buffers": [
        {
            "byteLength": 3091084,
            "uri": "buffer.bin"
        }
    ],
    "bufferViews": [
        {
            "buffer": 0,
            "byteLength": 367116,
            "byteOffset": 0,
            "target": 34963
        },
        {
            "buffer": 0,
            "byteLength": 510480,
            "byteOffset": 367116,
            "target": 34962
        },
        {
            "buffer": 0,
            "byteLength": 510480,
            "byteOffset": 877596,
            "target": 34962
        },
        {
            "buffer": 0,
            "byteLength": 340320,
            "byteOffset": 1388076,
            "target": 34962
        },
        {
            "buffer": 0,
            "byteLength": 340320,
            "byteOffset": 1728396,
            "target": 34962
        },
        {
            "buffer": 0,
            "byteLength": 340320,
            "byteOffset": 2068716,
            "target": 34962
        },
        {
            "buffer": 0,
            "byteLength": 680640,
            "byteOffset": 2409036,
            "target": 34962
        },
        {
            "buffer": 0,
            "byteLength": 1408,
            "byteOffset": 3089676
        }
    ],
    "scenes": [
        {
            "name": "Root Scene",
            "nodes": [
                0
            ]
        }
    ],
    "accessors": [
        {
            "componentType": 5123,
            "type": "SCALAR",
            "count": 183558,
            "bufferView": 0,
            "byteOffset": 0
        },
        {
            "componentType": 5126,
            "type": "VEC3",
            "count": 42540,
            "bufferView": 1,
            "byteOffset": 0,
            "min": [
                -0.70720386505127,
                5.9700000747398e-06,
                -0.412736088037491
            ],
            "max": [
                0.707203805446625,
                1.79700064659119,
                0.0774297714233398
            ]
        },
        {
            "componentType": 5126,
            "type": "VEC3",
            "count": 42540,
            "bufferView": 2,
            "byteOffset": 0
        },
        {
            "componentType": 5126,
            "type": "VEC2",
            "count": 42540,
            "bufferView": 3,
            "byteOffset": 0
        },
        {
            "componentType": 5126,
            "type": "VEC2",
            "count": 42540,
            "bufferView": 4,
            "byteOffset": 0
        },
        {
            "componentType": 5123,
            "type": "VEC4",
            "count": 42540,
            "bufferView": 5,
            "byteOffset": 0
        },
        {
            "componentType": 5126,
            "type": "VEC4",
            "count": 42540,
            "bufferView": 6,
            "byteOffset": 0
        },
        {
            "componentType": 5126,
            "type": "MAT4",
            "count": 22,
            "bufferView": 7,
            "byteOffset": 0
        }
    ],
    "images": [
        {
            "name": "T_Char_ACESuit_2K_BC.png",
            "uri": "T_Char_ACESuit_2K_BC.png"
        }
    ],
    "samplers": [
        {}
    ],
    "textures": [
        {
            "name": "file1",
            "sampler": 0,
            "source": 0
        }
    ],
    "materials": [
        {
            "name": "M_Char_Astronaut",
            "alphaMode": "OPAQUE",
            "extras": {
                "fromFBX": {
                    "shadingModel": "Phong",
                    "isTruePBR": false
                }
            },
            "pbrMetallicRoughness": {
                "baseColorTexture": {
                    "index": 0,
                    "texCoord": 0
                },
                "baseColorFactor": [
                    1.0,
                    1.0,
                    1.0,
                    1.0
                ],
                "metallicFactor": 0.400000005960464,
                "roughnessFactor": 1.0
            }
        }
    ],
    "meshes": [
        {
            "name": "SM_Char_Astronaut",
            "primitives": [
                {
                    "material": 0,
                    "mode": 4,
                    "attributes": {
                        "JOINTS_0": 5,
                        "NORMAL": 2,
                        "POSITION": 1,
                        "TEXCOORD_0": 3,
                        "TEXCOORD_1": 4,
                        "WEIGHTS_0": 6
                    },
                    "indices": 0
                }
            ]
        }
    ],
    "skins": [
        {
            "joints": [
                3,
                4,
                5,
                6,
                7,
                8,
                9,
                10,
                11,
                12,
                13,
                14,
                15,
                16,
                17,
                18,
                19,
                20,
                21,
                22,
                23,
                24
            ],
            "inverseBindMatrices": 7,
            "skeleton": 3
        }
    ],
    "nodes": [
        {
            "name": "RootNode",
            "translation": [
                0.0,
                0.0,
                0.0
            ],
            "rotation": [
                0.0,
                0.0,
                0.0,
                1.0
            ],
            "scale": [
                1.0,
                1.0,
                1.0
            ],
            "children": [
                1,
                2
            ]
        },
        {
            "name": "SM_Char_Astronaut",
            "translation": [
                0.0,
                0.0,
                0.0
            ],
            "rotation": [
                0.0,
                0.0,
                0.0,
                1.0
            ],
            "scale": [
                1.0,
                1.0,
                1.0
            ],
            "mesh": 0,
            "skin": 0
        },
        {
            "name": "SK_Char_Astronaut_Reference",
            "translation": [
                -2.99999989294975e-08,
                5.9700000747398e-06,
                0.0
            ],
            "rotation": [
                0.0,
                0.0,
                0.0,
                1.0
            ],
            "scale": [
                1.0,
                1.0,
                1.0
            ],
            "children": [
                3
            ]
        },
        {
            "name": "SK_Char_Astronaut_Hips",
            "translation": [
                -0.970008134841919,
                3.54432582855225,
                0.288412004709244
            ],
            "rotation": [
                -0.0645531043410301,
                -0.336148053407669,
                -0.6202592253685,
                0.705773234367371
            ],
            "scale": [
                1.00000011920929,
                0.999999523162842,
                1.00000023841858
            ],
            "children": [
                4,
                8,
                12
            ]
        },
        {
            "name": "SK_Char_Astronaut_LeftUpLeg",
            "translation": [
                0.000129530002595857,
                0.000877559999935329,
                0.104324549436569
            ],
            "rotation": [
                0.187879592180252,
                0.0356119126081467,
                0.969213962554932,
                0.155104264616966
            ],
            "scale": [
                1.00000011920929,
                1.00000011920929,
                0.999999821186066
            ],
            "children": [
                5
            ]
        },
        {
            "name": "SK_Char_Astronaut_LeftLeg",
            "translation": [
                0.415113031864166,
                0.0,
                1.42108543975646e-16
            ],
            "rotation": [
                -0.0321997068822384,
                -0.019792802631855,
                0.523304522037506,
                0.851307094097137
            ],
            "scale": [
                0.999999582767487,
                0.99999988079071,
                1.00000011920929
            ],
            "children": [
                6
            ]
        },
        {
            "name": "SK_Char_Astronaut_LeftFoot",
            "translation": [
                0.36790606379509,
                -5.68434175902586e-16,
                0.0
            ],
            "rotation": [
                -0.00800874922424555,
                -0.0395642071962357,
                -0.503689527511597,
                0.862941145896912
            ],
            "scale": [
                0.99999988079071,
                1.00000023841858,
                0.999999940395355
            ],
            "children": [
                7
            ]
        },
        {
            "name": "SK_Char_Astronaut_LeftToeBase",
            "translation": [
                0.151475116610527,
                1.42108543975646e-16,
                0.0
            ],
            "rotation": [
                -9.99999997475243e-07,
                -1.50000005305628e-06,
                -1.5000012950489e-12,
                1.0
            ],
            "scale": [
                1.0,
                1.0,
                1.0
            ]
        },
        {
            "name": "SK_Char_Astronaut_RightUpLeg",
            "translation": [
                0.000129530002595857,
                0.000877559999935329,
                -0.104324549436569
            ],
            "rotation": [
                -0.217497870326042,
                -0.0882050842046738,
                0.120320364832878,
                0.964591920375824
            ],
            "scale": [
                1.00000023841858,
                0.999999582767487,
                0.999999761581421
            ],
            "children": [
                9
            ]
        },
        {
            "name": "SK_Char_Astronaut_RightLeg",
            "translation": [
                -0.415113031864166,
                0.0,
                -5.68434175902586e-16
            ],
            "rotation": [
                -0.161580801010132,
                -0.0571757480502129,
                0.328614413738251,
                0.928781569004059
            ],
            "scale": [
                1.0,
                0.999999821186066,
                0.999999821186066
            ],
            "children": [
                10
            ]
        },
        {
            "name": "SK_Char_Astronaut_RightFoot",
            "translation": [
                -0.36790606379509,
                7.10542719878232e-17,
                0.0
            ],
            "rotation": [
                -0.132088750600815,
                0.00716575561091304,
                -0.433205097913742,
                0.891534924507141
            ],
            "scale": [
                1.0,
                1.00000011920929,
                0.999999582767487
            ],
            "children": [
                11
            ]
        },
        {
            "name": "SK_Char_Astronaut_RightToeBase",
            "translation": [
                -0.151475116610527,
                0.0,
                -5.68434175902586e-16
            ],
            "rotation": [
                2.59999997069826e-05,
                4.99999998737621e-07,
                -1.30000142595232e-11,
                1.0
            ],
            "scale": [
                1.0,
                1.0,
                1.0
            ]
        },
        {
            "name": "SK_Char_Astronaut_Spine",
            "translation": [
                0.0877589508891106,
                8.88178366760566e-17,
                2.84217087951293e-16
            ],
            "rotation": [
                4.06193157687085e-06,
                1.87102386917104e-06,
                -0.0319883860647678,
                0.999488234519958
            ],
            "scale": [
                0.999999523162842,
                0.999999523162842,
                1.0
            ],
            "children": [
                13
            ]
        },
        {
            "name": "SK_Char_Astronaut_Spine1",
            "translation": [
                0.0876370668411255,
                0.0,
                0.0
            ],
            "rotation": [
                -9.99718622551882e-07,
                -2.37011352766103e-08,
                0.0237011462450027,
                0.999719083309174
            ],
            "scale": [
                1.00000047683716,
                1.00000047683716,
                1.0
            ],
            "children": [
                14
            ]
        },
        {
            "name": "SK_Char_Astronaut_Spine2",
            "translation": [
                0.0876370668411255,
                -7.10542719878232e-17,
                -2.84217087951293e-16
            ],
            "rotation": [
                7.45182404671141e-09,
                -4.99944349030557e-07,
                0.0149036515504122,
                0.999888956546783
            ],
            "scale": [
                1.00000023841858,
                1.00000023841858,
                1.0
            ],
            "children": [
                15,
                19,
                23
            ]
        },
        {
            "name": "SK_Char_Astronaut_LeftShoulder",
            "translation": [
                0.171050488948822,
                -0.0135538894683123,
                0.0775149390101433
            ],
            "rotation": [
                -0.519214630126953,
                -0.497061014175415,
                -0.439513206481934,
                0.538678586483002
            ],
            "scale": [
                1.00000035762787,
                1.00000047683716,
                0.999999523162842
            ],
            "children": [
                16
            ]
        },
        {
            "name": "SK_Char_Astronaut_LeftArm",
            "translation": [
                0.116272427141666,
                0.0,
                -7.10542719878232e-17
            ],
            "rotation": [
                0.70367819070816,
                -0.370735853910446,
                -0.0334592573344707,
                0.605204463005066
            ],
            "scale": [
                1.00000023841858,
                0.999999582767487,
                0.999999761581421
            ],
            "children": [
                17
            ]
        },
        {
            "name": "SK_Char_Astronaut_LeftForeArm",
            "translation": [
                0.324562728404999,
                -1.42108543975646e-16,
                -1.42108543975646e-16
            ],
            "rotation": [
                0.00029963772976771,
                0.00106232962571084,
                0.151871904730797,
                0.988399565219879
            ],
            "scale": [
                1.00000047683716,
                1.00000047683716,
                1.00000047683716
            ],
            "children": [
                18
            ]
        },
        {
            "name": "SK_Char_Astronaut_LeftHand",
            "translation": [
                0.181558609008789,
                -2.84217087951293e-16,
                -1.42108543975646e-16
            ],
            "rotation": [
                -0.0880608782172203,
                0.0228621903806925,
                -0.0494520664215088,
                0.994624078273773
            ],
            "scale": [
                1.00000035762787,
                0.999999463558197,
                0.999999821186066
            ]
        },
        {
            "name": "SK_Char_Astronaut_RightShoulder",
            "translation": [
                0.171050488948822,
                -0.0135538894683123,
                -0.0775149464607239
            ],
            "rotation": [
                0.496468663215637,
                -0.434656381607056,
                0.538845837116241,
                0.523677289485931
            ],
            "scale": [
                0.999999523162842,
                0.999999701976776,
                0.999999582767487
            ],
            "children": [
                20
            ]
        },
        {
            "name": "SK_Char_Astronaut_RightArm",
            "translation": [
                -0.116272419691086,
                2.84217087951293e-16,
                -3.55271359939116e-17
            ],
            "rotation": [
                0.681519865989685,
                -0.153273239731789,
                -0.327811539173126,
                0.636064171791077
            ],
            "scale": [
                1.00000023841858,
                0.999999821186066,
                0.999999582767487
            ],
            "children": [
                21
            ]
        },
        {
            "name": "SK_Char_Astronaut_RightForeArm",
            "translation": [
                -0.324562668800354,
                0.0,
                -5.68434175902586e-16
            ],
            "rotation": [
                2.91332889901241e-06,
                5.45550346942036e-06,
                0.741517007350922,
                0.670934021472931
            ],
            "scale": [
                0.999999940395355,
                0.999999940395355,
                1.0
            ],
            "children": [
                22
            ]
        },
        {
            "name": "SK_Char_Astronaut_RightHand",
            "translation": [
                -0.181558638811111,
                -7.10542719878232e-17,
                -5.68434175902586e-16
            ],
            "rotation": [
                -3.00000147035462e-06,
                -1.49999698351166e-06,
                -1.00000454494875e-06,
                1.0
            ],
            "scale": [
                1.0,
                1.0,
                1.0
            ]
        },
        {
            "name": "SK_Char_Astronaut_Neck",
            "translation": [
                0.24230994284153,
                -5.32907039908674e-17,
                0.0
            ],
            "rotation": [
                3.05173398373881e-06,
                1.36083353936556e-05,
                0.0330630652606487,
                0.999453246593475
            ],
            "scale": [
                1.00000035762787,
                1.00000035762787,
                1.0
            ],
            "children": [
                24
            ]
        },
        {
            "name": "SK_Char_Astronaut_Head",
            "translation": [
                0.136973053216934,
                -3.55271359939116e-17,
                0.0
            ],
            "rotation": [
                9.99999997475243e-07,
                -2.77555888505187e-17,
                -1.38777596836736e-17,
                1.0
            ],
            "scale": [
                1.0,
                1.0,
                1.0
            ]
        }
    ]
}